#!OML:ASF H:\Terrain\Patient Classification 1\Terrain2\Thursday\justin.ASF
:FULLY-SPECIFIED
:DEGREES
3384
root 5.112 17.5085 -21.8146 1232.7 -260.736 151.597
lowerback 6.96375 1.59566 2.37236
upperback 2.03919 2.43321 3.03931
thorax -1.83256 1.24166 1.59442
lowerneck -13.2675 -3.05347 -9.64012
upperneck 36.4361 -2.11494 4.89848
head 15.1253 -1.10975 3.55084
rclavicle 3.52843e-015 5.04913e-014
rhumerus -30.6384 -9.17478 -79.9929
rradius 32.8576
rwrist -11.1851
rhand -20.8031 11.7064
rfingers 7.12502
rthumb 5.56445 -18.2005
lclavicle 3.52843e-015 5.04913e-014
lhumerus -35.6954 4.24572 86.7939
lradius 29.7221
lwrist 2.37989
lhand -23.0617 19.4244
lfingers 7.12502
lthumb 3.38356 49.3772
rfemur -5.25691 -2.89013 21.5509
rtibia 55.1428
rfoot -13.5475 -7.91157
rtoes -3.45199
lfemur -18.5383 5.35976 -15.4585
ltibia 20.7812
lfoot 2.04336 -14.498
ltoes 19.7939
3385
root 5.19536 17.523 -21.8184 1230.61 -260.757 149.413
lowerback 6.85351 1.45679 2.51329
upperback 2.08588 2.26098 3.22085
thorax -1.72309 1.15877 1.72129
lowerneck -13.4654 -3.03797 -9.77775
upperneck 36.5424 -1.99561 4.80691
head 15.2156 -1.09307 3.56079
rclavicle -3.45885e-014 -1.66979e-014
rhumerus -30.5929 -8.33887 -80.2955
rradius 33.6636
rwrist -12.3613
rhand -20.8777 11.5527
rfingers 7.12502
rthumb 5.4924 -18.3561
lclavicle -3.45885e-014 -1.66979e-014
lhumerus -35.4229 3.77744 87.0031
lradius 29.9704
lwrist 2.64606
lhand -23.0108 19.4771
lfingers 7.12502
lthumb 3.43265 49.4292
rfemur -6.3192 -3.21643 22.0697
rtibia 56.0222
rfoot -14.1788 -8.12374
rtoes -3.35593
lfemur -18.2253 5.12646 -15.1625
ltibia 20.5898
lfoot 1.77625 -14.3864
ltoes 19.1443
3386
root 5.27395 17.5361 -21.8316 1230.2 -260.882 149.013
lowerback 6.89046 1.36286 2.44217
upperback 2.13477 2.13241 3.23083
thorax -1.69455 1.09552 1.78174
lowerneck -13.5751 -3.02564 -9.72635
upperneck 36.6013 -1.99822 4.84707
head 15.269 -1.08337 3.57142
rclavicle -2.87244e-014 -5.1684e-014
rhumerus -30.6616 -7.47707 -80.7465
rradius 34.5261
rwrist -13.4368
rhand -21.194 11.5172
rfingers 7.12502
rthumb 5.187 -18.3993
lclavicle -2.87244e-014 -5.1684e-014
lhumerus -35.0901 3.15058 87.0847
lradius 30.1299
lwrist 2.96492
lhand -23.0954 19.5918
lfingers 7.12502
lthumb 3.35094 49.5452
rfemur -7.32785 -3.52046 22.1793
rtibia 56.8243
rfoot -14.6798 -8.15442
rtoes -2.78537
lfemur -17.8193 4.72322 -15.2144
ltibia 20.4168
lfoot 1.38958 -14.0777
ltoes 18.5154
3387
root 5.34617 17.5524 -21.8426 1230.85 -261.288 149.683
lowerback 6.96582 1.30759 2.20842
upperback 2.13713 2.03985 3.0989
thorax -1.73596 1.04791 1.78216
lowerneck -13.435 -3.04163 -9.4994
upperneck 36.5327 -2.09056 4.80621
head 15.205 -1.09517 3.49465
rclavicle 9.64106e-015 -3.18055e-015
rhumerus -30.6243 -7.63292 -80.9569
rradius 35.1029
rwrist -13.4273
rhand -21.4408 11.9247
rfingers 7.12502
rthumb 4.94875 -17.9975
lclavicle 9.64106e-015 -3.18055e-015
lhumerus -34.7546 2.45323 87.1296
lradius 30.1793
lwrist 2.6648
lhand -23.4337 19.7565
lfingers 7.12502
lthumb 3.02424 49.7148
rfemur -8.31309 -4.04324 21.9767
rtibia 57.5258
rfoot -15.3709 -7.92007
rtoes -2.0288
lfemur -17.4707 4.59279 -15.6519
ltibia 20.1744
lfoot 1.18832 -14.1202
ltoes 17.6528
3388
root 5.42243 17.568 -21.8419 1232.19 -261.646 151.056
lowerback 6.95199 1.3498 1.8862
upperback 2.20287 2.06145 2.87749
thorax -1.66393 1.05746 1.73366
lowerneck -13.4856 -3.09242 -9.09371
upperneck 36.5495 -2.24749 4.70935
head 15.2285 -1.11786 3.35595
rclavicle -1.72943e-014 -1.15295e-014
rhumerus -30.5452 -8.42624 -81.1097
rradius 35.6306
rwrist -12.9837
rhand -21.5089 12.2931
rfingers 7.12502
rthumb 4.883 -17.6306
lclavicle -1.72943e-014 -1.15295e-014
lhumerus -34.1853 1.8464 86.949
lradius 30.1194
lwrist 2.1268
lhand -23.4587 19.6442
lfingers 7.12502
lthumb 3.00008 49.6028
rfemur -9.30465 -4.533 21.7611
rtibia 58.1215
rfoot -16.0614 -7.64783
rtoes -2.93519
lfemur -17.0961 4.79991 -16.1399
ltibia 19.916
lfoot 1.12908 -14.4751
ltoes 16.774
3389
root 5.49691 17.5731 -21.8455 1233.35 -261.887 152.199
lowerback 6.97651 1.3851 1.61453
upperback 2.18268 2.08732 2.81099
thorax -1.70595 1.06923 1.81419
lowerneck -13.465 -3.13508 -9.0669
upperneck 36.6062 -2.31362 4.7112
head 15.2575 -1.14023 3.34397
rclavicle 3.67752e-015 1.31198e-014
rhumerus -30.6499 -8.39836 -81.12
rradius 36.3693
rwrist -13.1906
rhand -21.3659 12.2007
rfingers 7.12502
rthumb 5.02105 -17.7199
lclavicle 3.67752e-015 1.31198e-014
lhumerus -33.8176 1.32713 86.9533
lradius 30.2068
lwrist 1.95786
lhand -22.9064 19.406
lfingers 7.12502
lthumb 3.53352 49.3564
rfemur -10.3434 -4.73682 21.6765
rtibia 58.5524
rfoot -16.721 -7.37433
rtoes -3.28514
lfemur -16.7829 5.06125 -16.5214
ltibia 19.7061
lfoot 1.12242 -14.8509
ltoes 16.7517
3390
root 5.56559 17.5722 -21.8546 1234.28 -262.179 153.018
lowerback 6.97437 1.397 1.36422
upperback 2.0678 2.08842 2.85937
thorax -1.83388 1.06883 2.00274
lowerneck -13.2544 -3.2225 -9.36469
upperneck 36.6665 -2.37462 4.7591
head 15.2536 -1.19752 3.41067
rclavicle -3.8266e-014 -9.54166e-015
rhumerus -30.6514 -8.10926 -81.0356
rradius 36.9059
rwrist -13.4786
rhand -21.3572 12.2543
rfingers 7.12502
rthumb 5.0295 -17.666
lclavicle -3.8266e-014 -9.54166e-015
lhumerus -33.6184 0.841642 87.2115
lradius 30.3342
lwrist 1.85978
lhand -22.5894 19.2939
lfingers 7.12502
lthumb 3.83959 49.2391
rfemur -11.3539 -5.14896 21.6591
rtibia 58.7553
rfoot -17.2836 -7.2747
rtoes -4.77225
lfemur -16.6614 4.94857 -16.8678
ltibia 19.6325
lfoot 0.952556 -14.8544
ltoes 17.1045
3391
root 5.63191 17.5765 -21.8555 1235.65 -262.488 154.244
lowerback 6.95371 1.36159 0.979584
upperback 1.93247 2.01572 2.89658
thorax -1.97445 1.03213 2.26199
lowerneck -13.1764 -3.28301 -9.84438
upperneck 36.9425 -2.35821 4.92371
head 15.3866 -1.23257 3.58363
rclavicle 7.95139e-016 -1.70955e-014
rhumerus -30.7309 -7.99037 -81.0643
rradius 37.4608
rwrist -13.5332
rhand -21.4549 12.6768
rfingers 7.12502
rthumb 4.93509 -17.2457
lclavicle 7.95139e-016 -1.70955e-014
lhumerus -33.3953 0.72152 87.3269
lradius 30.3879
lwrist 1.86933
lhand -22.9411 19.3895
lfingers 7.12502
lthumb 3.49994 49.3405
rfemur -12.4527 -5.57579 21.6272
rtibia 58.7815
rfoot -17.8146 -7.18347
rtoes -7.27366
lfemur -16.6629 4.71868 -17.222
ltibia 19.7049
lfoot 0.728065 -14.7654
ltoes 17.5481
3392
root 5.69511 17.5775 -21.8539 1235.57 -262.81 154.009
lowerback 6.89128 1.16064 0.834536
upperback 1.89009 1.73468 2.85477
thorax -1.97694 0.891519 2.32545
lowerneck -13.326 -3.18533 -9.95012
upperneck 37.1355 -2.17945 4.99313
head 15.5026 -1.1644 3.6721
rclavicle -5.66536e-015 -8.34896e-015
rhumerus -30.5879 -7.59857 -81.4935
rradius 37.9845
rwrist -13.6192
rhand -21.3618 12.8496
rfingers 7.12502
rthumb 5.02497 -17.0708
lclavicle -5.66536e-015 -8.34896e-015
lhumerus -33.0956 0.757776 87.1006
lradius 30.6133
lwrist 2.19469
lhand -23.2595 19.7417
lfingers 7.12502
lthumb 3.19246 49.6976
rfemur -13.5709 -5.72332 21.6478
rtibia 58.4596
rfoot -18.5958 -6.05231
rtoes -4.37722
lfemur -16.7477 4.97659 -17.4297
ltibia 19.8695
lfoot 0.789974 -15.2986
ltoes 18.7827
3393
root 5.75912 17.5738 -21.8557 1233.9 -263.036 152.287
lowerback 6.81075 0.691798 0.710112
upperback 2.06748 1.09416 2.74989
thorax -1.72667 0.571653 2.34391
lowerneck -13.8634 -2.75252 -8.79625
upperneck 37.0603 -1.67112 4.4507
head 15.5047 -0.871721 3.31141
rclavicle -1.86361e-014 1.98785e-015
rhumerus -29.8264 -6.7528 -82.5745
rradius 38.1609
rwrist -13.3766
rhand -21.2141 12.9515
rfingers 7.12502
rthumb 5.16762 -16.9655
lclavicle -1.86361e-014 1.98785e-015
lhumerus -32.6563 1.33881 86.2292
lradius 31.0239
lwrist 2.41222
lhand -23.1736 20.0774
lfingers 7.12502
lthumb 3.27541 50.032
rfemur -14.2788 -6.35688 22.0045
rtibia 58.0136
rfoot -19.1727 -5.8145
rtoes -6.85146
lfemur -16.7554 5.32139 -17.4258
ltibia 20.1655
lfoot 0.764594 -15.9469
ltoes 19.9432
